<svg xmlns="http://www.w3.org/2000/svg" width="70" height="68" fill="none"><g clip-path="url(#a)"><path fill="#D1D5DB" stroke="#D1D5DB" stroke-width="2" d="M68.572 2.547v-1H1.93V66.224h66.642V2.547Z"/><path fill="#fff" d="m22.603 7.367-4.75 9.564-4.755-9.564H7.91V21.83h3.638V11.48l4.647 8.743h3.315l4.643-8.743v10.35h3.639V7.367h-5.189ZM60.783 7.367l-2.76 10.67-3.225-10.67H50.52l-3.226 10.67-2.759-10.67h-3.8l3.822 14.462h4.786l3.316-10.92 3.318 10.92h4.783l3.821-14.462h-3.8ZM54.958 51.707c-2.476-.174-4.618-.327-4.618-1.62 0-1.396 1.471-1.67 4.015-1.67 2.207 0 3.735.288 4.004 1.69h4.188c-.29-3.04-2.896-4.457-8.192-4.457s-8.059 1.479-8.059 4.52c0 3.816 4.346 4.112 7.837 4.348 2.482.167 4.624.313 4.624 1.674 0 1.437-1.668 1.733-4.176 1.733-3.28 0-4.076-.69-4.345-1.966H46.05c.344 3.36 2.824 4.731 8.532 4.731 2.863 0 4.902-.361 6.229-1.106 1.356-.762 2.016-1.955 2.016-3.646 0-3.674-4.363-3.983-7.868-4.23Z"/></g><defs><clipPath id="a"><path fill="#fff" d="M.693.385h69v67h-69z"/></clipPath></defs></svg>