<svg xmlns="http://www.w3.org/2000/svg" width="259" height="55" fill="none"><path fill="#D1D5DB" fill-rule="evenodd" d="m81.16 36.754-.45-.462.45-.462v.924ZM71.33 26.687l-5.725-5.862V1.614L80.71 17.08l-9.381 9.607Z" clip-rule="evenodd"/><path fill="#D1D5DB" d="M1.273 29.489c0 3.176 2.312 4.887 5.525 5.206 0 .658-.018 1.296-.056 1.935h2.82c-.02-.544-.057-1.22-.057-1.935 3.214-.32 5.582-2.03 5.582-5.206 0-3.158-2.368-4.85-5.582-5.169 0-.601.019-1.184.056-1.804H6.742c.038.62.056 1.203.056 1.804-3.213.32-5.525 2.011-5.525 5.169Zm11.258 0c0 1.785-1.316 2.856-3.026 2.97v-5.902c1.71.094 3.026 1.146 3.026 2.932Zm-8.72 0c0-1.767 1.296-2.82 2.987-2.932v5.901c-1.653-.131-2.988-1.184-2.988-2.97Zm25.203 4.247h-1.522v-7.248c0-1.372.037-2.898.094-3.352h-2.894c.055.68.093 2.244.093 3.39v7.266h-4.793v-7.285c0-1.279.038-2.804.094-3.371h-2.894c.038.567.094 2.093.094 3.37v6.046c0 .79-.038 2.763-.094 3.458h9.135l-.113 3.872h2.312l.488-6.146Zm1.88-10.6c.056.695.094 2.688.094 3.459v6.051a64.13 64.13 0 0 1-.095 3.364h2.895c-.056-.583-.094-2.086-.094-3.364v-7.255h5.093v7.255c0 1.146-.019 2.669-.075 3.364h2.876c-.038-.45-.075-1.991-.075-3.345v-6.22c0-.866.018-2.745.075-3.31H30.893Zm15.73 6.41c0-2.369 1.899-4.286 4.343-4.286 1.165 0 2.236.357 3.025 1.109v-3.064c-.94-.113-1.597-.413-3.232-.413-4.004 0-6.842 2.988-6.842 6.653 0 3.703 2.838 6.69 6.842 6.69 1.597 0 2.293-.281 3.382-.47v-2.968c-.808.751-1.935 1.09-3.138 1.09-2.481 0-4.38-1.955-4.38-4.342Zm12.499 1.86h1.203c2.894 0 4.605-1.692 4.605-4.116 0-2.406-1.673-4.154-4.586-4.154h-4.023c.057.564.095 1.917.095 3.195v6.315c0 1.278-.038 2.781-.095 3.364h2.876c-.056-.583-.075-2.086-.075-3.364v-1.24Zm0-6.221h.903c1.428 0 2.18 1.052 2.18 2.086 0 1.015-.809 2.086-2.18 2.086h-.903v-4.172Z"/><path fill="#D1D5DB" fill-rule="evenodd" d="M93.462 12.339 82.968 23.083V36.04l10.494-10.744V12.339Z" clip-rule="evenodd"/><path fill="#D1D5DB" d="M84.663 1.883a6.685 6.685 0 1 1 0 13.37 6.685 6.685 0 0 1 0-13.37ZM81.643 18.072 66.085 34v19.21l15.558-15.928V18.072ZM110.236 20.638v-5.11c-.818.032-1.466.278-1.943.734-.478.457-.717 1.063-.717 1.817 0 .764.237 1.373.711 1.83.478.457 1.127.7 1.949.73Zm4.03-2.552c0-.764-.239-1.374-.716-1.83-.474-.456-1.12-.7-1.937-.729v5.111c.817-.034 1.463-.279 1.937-.735.477-.457.716-1.062.716-1.817Zm-4.037 3.753c-1.245-.033-2.233-.384-2.967-1.056-.733-.675-1.101-1.576-1.101-2.704 0-1.123.368-2.02 1.101-2.69.734-.67 1.722-1.025 2.967-1.063v-.905h1.391v.905c1.244.034 2.233.387 2.967 1.063.733.67 1.1 1.569 1.1 2.697 0 1.12-.367 2.016-1.1 2.69-.734.671-1.723 1.025-2.967 1.063v.956h-1.391v-.956Zm12.612-.415v1.22h-5.759v-9.072h5.759v1.213h-4.35v2.653h4.118v1.17h-4.118v2.816h4.35Zm3.773-2.288c-.034.561-.094 1.016-.183 1.364a2.101 2.101 0 0 1-.44.874v.05h4.15v-6.64h-3.251l-.276 4.352Zm-1.616 3.509v1.79h-1.295v-3.011h.661c.31-.18.534-.459.672-.835.142-.379.232-.883.27-1.516l.334-5.501h5.91v7.852h1.131v3.012h-1.289v-1.791h-6.394Zm14.681-1.221v1.22h-5.76v-9.072h5.76v1.213h-4.351v2.653h4.118v1.17h-4.118v2.816h4.351Zm1.584-7.852h3.401c.882 0 1.598.276 2.151.83.557.554.836 1.27.836 2.15 0 .884-.283 1.606-.848 2.163-.563.553-1.289.83-2.183.83h-1.948v3.1h-1.409v-9.073Zm1.409 1.188v3.602h1.615c.613 0 1.085-.157 1.421-.471.335-.315.503-.758.503-1.333 0-.57-.168-1.012-.503-1.327-.33-.314-.802-.471-1.414-.471h-1.622Zm11.568 7.885-.829-2.453h-3.459l-.829 2.453h-1.465l3.276-9.073h1.521l3.276 9.073h-1.491Zm-2.577-7.564-1.352 3.979h2.741L151.7 15.08h-.037Zm12.291 7.564h-1.408v-7.86h-3.068l-.271 4.395c-.071 1.211-.3 2.101-.685 2.672-.386.57-.972.855-1.76.855-.206 0-.382-.023-.528-.07v-1.243c.117.028.24.043.37.043.42 0 .727-.182.924-.548.202-.368.326-.961.371-1.778l.303-5.54h5.752v9.074Zm1.805 0v-9.073h1.408v3.25h2.049c.894 0 1.622.271 2.188.812.566.54.85 1.24.85 2.098 0 .86-.28 1.56-.836 2.101-.554.54-1.274.812-2.156.812h-3.503Zm1.408-1.195h1.723c.612 0 1.084-.15 1.414-.447.335-.299.503-.72.503-1.27 0-.553-.168-.979-.503-1.277-.336-.297-.806-.445-1.414-.445h-1.723v3.44Zm13.913 1.195h-1.408v-4.02h-4.66v4.02h-1.406v-9.073h1.406v3.835h4.66v-3.835h1.408v9.073Zm1.792 0v-9.073h1.408v3.25h2.05c.893 0 1.622.271 2.189.812.565.54.848 1.24.848 2.098 0 .86-.279 1.56-.836 2.101-.553.54-1.272.812-2.157.812h-3.502Zm1.408-1.195h1.723c.612 0 1.084-.15 1.415-.447.334-.299.504-.72.504-1.27 0-.553-.17-.979-.504-1.277-.335-.297-.807-.445-1.415-.445h-1.723v3.44Zm7.627 1.195h-1.408v-9.073h1.408v9.073Zm7.891 0v-6.829h-.095l-4.621 6.829h-1.371v-9.073h1.396v6.846h.095l4.62-6.846h1.372v9.073h-1.396Zm-4.383-11.601h.893c.004.344.111.627.32.849.214.222.487.333.819.333.329 0 .6-.111.811-.333.214-.222.322-.505.326-.85h.894c0 .567-.19 1.026-.567 1.378-.377.352-.865.527-1.464.527-.6 0-1.089-.175-1.465-.527-.378-.352-.567-.811-.567-1.377Zm18.68 13.392h-1.289v-1.791h-7.199v-9.073h1.408v7.858h4.54v-7.858h1.408v7.858h1.132v3.006Zm6.991-3.012v1.22h-5.759v-9.072h5.759v1.213h-4.35v2.653h4.118v1.17h-4.118v2.816h4.35Zm9.06 1.22h-1.408v-4.018h-4.659v4.019h-1.408v-9.073h1.408v3.835h4.659v-3.835h1.408v9.073Zm5.452 0h-1.41v-7.86h-2.778v-1.212h6.96v1.213h-2.772v7.86Zm4.048-9.072h3.401c.88 0 1.599.276 2.151.83.557.554.836 1.27.836 2.15 0 .884-.283 1.606-.848 2.163-.563.553-1.29.83-2.183.83h-1.948v3.1h-1.409v-9.073Zm1.409 1.188v3.602h1.616c.612 0 1.085-.157 1.42-.471.336-.315.503-.758.503-1.333 0-.57-.167-1.012-.503-1.327-.331-.314-.803-.471-1.415-.471h-1.621ZM113.914 36.89h-1.402v-7.847h-4.539v7.846h-1.415v-9.073h7.356v9.073Zm5.721-9.224c1.304 0 2.337.42 3.1 1.264.767.842 1.151 1.985 1.151 3.426 0 1.442-.382 2.584-1.145 3.427-.763.838-1.798 1.258-3.106 1.258-1.308 0-2.343-.42-3.105-1.258-.763-.843-1.145-1.985-1.145-3.427 0-1.441.382-2.584 1.145-3.426.762-.843 1.797-1.264 3.105-1.264Zm0 1.238c-.863 0-1.548.31-2.055.93-.503.621-.755 1.462-.755 2.522 0 1.056.252 1.895.755 2.515.507.621 1.192.93 2.055.93.859 0 1.541-.309 2.044-.93.507-.62.76-1.459.76-2.515 0-1.06-.253-1.901-.76-2.521-.503-.62-1.185-.93-2.044-.93Zm7.495 4.478c-.034.561-.095 1.015-.183 1.363a2.123 2.123 0 0 1-.439.874v.05h4.149V29.03h-3.251l-.276 4.352Zm-1.616 3.507v1.792h-1.295V35.67h.66c.31-.18.534-.46.672-.837.143-.377.233-.883.271-1.515l.333-5.501h5.91v7.853h1.132v3.011h-1.289v-1.792h-6.394Zm10.336 0h-1.414v-9.073h5.546v1.227h-4.132v7.846Zm8.809-9.223c1.303 0 2.336.42 3.099 1.264.766.842 1.152 1.985 1.152 3.426 0 1.442-.383 2.584-1.146 3.427-.762.838-1.797 1.258-3.105 1.258s-2.344-.42-3.107-1.258c-.762-.843-1.145-1.985-1.145-3.427 0-1.441.383-2.584 1.145-3.426.763-.843 1.799-1.264 3.107-1.264Zm0 1.238c-.864 0-1.549.31-2.056.93-.504.621-.755 1.462-.755 2.522 0 1.056.251 1.895.755 2.515.507.621 1.192.93 2.056.93.859 0 1.54-.309 2.043-.93.508-.62.76-1.459.76-2.515 0-1.06-.252-1.901-.76-2.521-.503-.62-1.184-.93-2.043-.93Zm8.739 7.985h-1.408V29.03h-2.779v-1.213h6.959v1.213h-2.772v7.86Zm7.293-9.223c1.304 0 2.336.42 3.1 1.264.767.842 1.151 1.985 1.151 3.426 0 1.442-.382 2.584-1.144 3.427-.763.838-1.799 1.258-3.107 1.258-1.308 0-2.343-.42-3.105-1.258-.764-.843-1.146-1.985-1.146-3.427 0-1.441.382-2.584 1.146-3.426.762-.843 1.797-1.264 3.105-1.264Zm0 1.238c-.863 0-1.549.31-2.056.93-.503.621-.755 1.462-.755 2.522 0 1.056.252 1.895.755 2.515.507.621 1.193.93 2.056.93.859 0 1.54-.309 2.043-.93.508-.62.761-1.459.761-2.515 0-1.06-.253-1.901-.761-2.521-.503-.62-1.184-.93-2.043-.93Zm9.361 7.985h-3.64v-9.073h3.622c.804 0 1.45.209 1.936.623.488.411.73.958.73 1.641 0 .482-.158.914-.472 1.295-.31.377-.692.604-1.144.68v.05c.62.07 1.119.31 1.496.717.378.402.566.902.566 1.502 0 .8-.275 1.43-.823 1.886-.551.453-1.307.68-2.271.68Zm-2.232-7.922v2.71h1.579c.608 0 1.075-.12 1.401-.364.328-.244.492-.59.492-1.038 0-.419-.14-.741-.416-.968-.277-.226-.67-.34-1.182-.34h-1.874Zm0 6.772h1.943c.633 0 1.116-.128 1.447-.384.33-.256.497-.63.497-1.12 0-.989-.676-1.482-2.025-1.482h-1.862v2.986Zm9.514-3.596 4.362 4.746h-1.842l-3.911-4.256h-.049v4.256h-1.408v-9.073h1.408v4.062h.049l3.697-4.061h1.686l-3.992 4.325Zm11.486 4.746v-6.828h-.094l-4.62 6.828h-1.372v-9.073h1.396v6.847h.094l4.622-6.846h1.369v9.072h-1.395Zm-78.433 14.415c-1.275 0-2.286-.423-3.037-1.27-.746-.846-1.12-1.993-1.12-3.439 0-1.438.376-2.58 1.126-3.426.755-.85 1.764-1.276 3.031-1.276.998 0 1.847.278 2.546.835.704.554 1.132 1.283 1.282 2.189h-1.414a2.303 2.303 0 0 0-.881-1.29c-.435-.322-.946-.484-1.533-.484-.826 0-1.486.315-1.981.944-.49.624-.736 1.46-.736 2.508 0 1.06.246 1.904.736 2.527.49.621 1.153.931 1.987.931.604 0 1.115-.14 1.534-.42a2.15 2.15 0 0 0 .874-1.183h1.414c-.196.9-.63 1.603-1.301 2.106-.666.499-1.509.748-2.527.748Zm12.593-.17h-1.402v-7.846h-4.539v7.846h-1.415v-9.072h7.356v9.072Zm5.721-9.223c1.303 0 2.338.421 3.1 1.264.767.843 1.151 1.984 1.151 3.426 0 1.442-.382 2.584-1.145 3.427-.763.838-1.797 1.258-3.106 1.258-1.308 0-2.342-.42-3.105-1.258-.763-.843-1.145-1.985-1.145-3.427s.382-2.584 1.145-3.426c.763-.843 1.797-1.264 3.105-1.264Zm0 1.238c-.863 0-1.548.31-2.055.931-.503.62-.755 1.461-.755 2.521 0 1.057.252 1.895.755 2.515.507.62 1.192.932 2.055.932.86 0 1.541-.311 2.043-.932.508-.62.762-1.458.762-2.515 0-1.06-.254-1.9-.762-2.521-.502-.62-1.183-.93-2.043-.93Zm5.722-1.087h3.401c.88 0 1.598.276 2.15.83.558.554.837 1.27.837 2.15 0 .885-.284 1.606-.849 2.164-.562.553-1.29.83-2.182.83h-1.949v3.098h-1.408v-9.072Zm1.408 1.188v3.603h1.616c.612 0 1.085-.157 1.421-.471.335-.314.503-.759.503-1.334 0-.57-.168-1.012-.503-1.327-.332-.313-.802-.471-1.414-.471h-1.623Zm9.859 7.884h-1.408v-7.859h-2.78v-1.213h6.96v1.213h-2.772v7.86Zm10.134 0v-6.827h-.093l-4.621 6.827h-1.371v-9.072h1.396v6.847h.093l4.622-6.847h1.37v9.072h-1.396Zm6.835 0h-3.64v-9.072h3.621c.804 0 1.451.208 1.936.623.486.41.73.957.73 1.64 0 .483-.158.914-.471 1.296a1.836 1.836 0 0 1-1.145.678v.05c.621.072 1.118.311 1.496.718.377.403.566.903.566 1.503 0 .8-.274 1.428-.824 1.886-.549.453-1.306.678-2.269.678Zm-2.232-7.921v2.71h1.577c.608 0 1.076-.122 1.403-.366.327-.242.491-.588.491-1.037 0-.419-.139-.742-.415-.968-.277-.226-.671-.34-1.183-.34h-1.873Zm0 6.771h1.943c.633 0 1.114-.128 1.445-.384.332-.255.497-.628.497-1.118 0-.99-.674-1.485-2.025-1.485h-1.86v2.987Zm14.14 1.15h-1.408v-4.017h-4.66v4.017h-1.408v-9.072h1.408v3.835h4.66v-3.835h1.408v9.072Zm5.715-9.223c1.304 0 2.336.421 3.1 1.264.766.843 1.15 1.984 1.15 3.426 0 1.442-.381 2.584-1.144 3.427-.762.838-1.798 1.258-3.106 1.258-1.308 0-2.343-.42-3.106-1.258-.762-.843-1.144-1.985-1.144-3.427s.382-2.584 1.144-3.426c.763-.843 1.798-1.264 3.106-1.264Zm0 1.238c-.863 0-1.548.31-2.055.931-.504.62-.755 1.461-.755 2.521 0 1.057.251 1.895.755 2.515.507.62 1.192.932 2.055.932.858 0 1.541-.311 2.044-.932.506-.62.76-1.458.76-2.515 0-1.06-.254-1.9-.76-2.521-.503-.62-1.186-.93-2.044-.93Zm7.136 7.985h-1.415v-9.072h5.545v1.226h-4.13v7.846Zm8.809-9.223c1.304 0 2.336.421 3.099 1.264.768.843 1.15 1.984 1.15 3.426 0 1.442-.381 2.584-1.144 3.427-.762.838-1.797 1.258-3.105 1.258s-2.343-.42-3.107-1.258c-.762-.843-1.144-1.985-1.144-3.427s.382-2.584 1.144-3.426c.764-.843 1.799-1.264 3.107-1.264Zm0 1.238c-.864 0-1.549.31-2.056.931-.504.62-.755 1.461-.755 2.521 0 1.057.251 1.895.755 2.515.507.62 1.192.932 2.056.932.859 0 1.54-.311 2.043-.932.506-.62.761-1.458.761-2.515 0-1.06-.255-1.9-.761-2.521-.503-.62-1.184-.93-2.043-.93Zm8.336-1.087h3.401c.88 0 1.598.276 2.151.83.557.554.836 1.27.836 2.15 0 .885-.283 1.606-.848 2.164-.563.553-1.289.83-2.183.83h-1.948v3.098h-1.409v-9.072Zm1.409 1.188v3.603h1.615c.612 0 1.085-.157 1.421-.471.335-.314.503-.759.503-1.334 0-.57-.168-1.012-.503-1.327-.33-.313-.802-.471-1.414-.471h-1.622Zm12.122 6.665v1.22h-5.759v-9.073h5.759v1.213h-4.351v2.654h4.117v1.17h-4.117v2.816h4.351Zm3.262-2.83V45.91h1.22c.519 0 .942-.138 1.264-.415.327-.277.491-.633.491-1.07 0-.435-.153-.778-.459-1.03-.302-.252-.713-.378-1.233-.378-.528 0-.955.13-1.283.39-.322.256-.505.61-.546 1.064h-1.334c.047-.813.358-1.455.931-1.924.575-.47 1.333-.705 2.276-.705.893 0 1.623.229 2.189.686.564.452.848 1.037.848 1.753 0 .508-.157.954-.472 1.34a2.183 2.183 0 0 1-1.22.754v.051c.608.075 1.087.314 1.44.716.352.403.528.912.528 1.528 0 .763-.317 1.402-.956 1.918-.636.51-1.43.766-2.382.766-.984 0-1.79-.242-2.414-.73-.625-.485-.958-1.128-1.001-1.93h1.36c.04.445.247.802.615 1.07.373.264.852.396 1.434.396.566 0 1.022-.144 1.371-.434a1.39 1.39 0 0 0 .528-1.125c0-.474-.172-.845-.516-1.113-.34-.268-.813-.402-1.421-.402h-1.258Zm11.764 2.83v1.22h-5.758v-9.073h5.758v1.213h-4.35v2.654h4.117v1.17h-4.117v2.816h4.35Zm1.584-7.853h3.402c.881 0 1.597.276 2.15.83.558.554.835 1.27.835 2.15 0 .885-.281 1.606-.848 2.164-.561.553-1.289.83-2.181.83h-1.95v3.098h-1.408v-9.072Zm1.408 1.188v3.603h1.616c.612 0 1.087-.157 1.422-.471.334-.314.502-.759.502-1.334 0-.57-.168-1.012-.502-1.327-.331-.313-.803-.471-1.414-.471h-1.624Zm10.003 7.884h-3.64v-9.072h3.621c.806 0 1.451.208 1.938.623.485.41.728.957.728 1.64 0 .483-.156.914-.471 1.296a1.836 1.836 0 0 1-1.144.678v.05c.62.072 1.119.311 1.496.718.377.403.565.903.565 1.503 0 .8-.274 1.428-.822 1.886-.55.453-1.307.678-2.271.678Zm-2.231-7.921v2.71h1.578c.608 0 1.076-.122 1.402-.366.327-.242.49-.588.49-1.037 0-.419-.138-.742-.415-.968-.276-.226-.671-.34-1.181-.34h-1.874Zm0 6.771h1.943c.632 0 1.115-.128 1.447-.384.329-.255.496-.628.496-1.118 0-.99-.675-1.485-2.026-1.485h-1.86v2.987Zm12.511 1.15-.831-2.451h-3.457l-.829 2.451h-1.466l3.276-9.072h1.522l3.276 9.072h-1.491Zm-2.577-7.563-1.352 3.98h2.741l-1.352-3.98h-.037Z"/></svg>