<svg xmlns="http://www.w3.org/2000/svg" width="302" height="69" fill="none"><path fill="#D1D5DB" d="M86.493 22.36h2.937l3.101 7.566h.132l3.101-7.566h2.937V33.62h-2.31v-7.33h-.093l-2.915 7.275h-1.572l-2.915-7.302h-.093v7.357h-2.31V22.36ZM100.662 22.36h2.376v7.082h.093l4.867-7.082h2.084V33.62h-2.381v-7.088h-.083l-4.894 7.088h-2.062V22.36ZM112.049 33.621V22.36h2.381v4.646h4.833V22.36h2.376V33.62h-2.376V28.97h-4.833v4.652h-2.381ZM123.602 22.36h2.375v7.082h.094l4.866-7.082h2.084V33.62h-2.381v-7.088h-.082l-4.894 7.088h-2.062V22.36ZM144.924 26.302h-2.408a2.368 2.368 0 0 0-.269-.83 2.114 2.114 0 0 0-.523-.627 2.29 2.29 0 0 0-.737-.396 2.816 2.816 0 0 0-.896-.137c-.583 0-1.091.145-1.523.434-.433.286-.768.704-1.006 1.254-.239.546-.358 1.21-.358 1.99 0 .803.119 1.478.358 2.024.242.546.579.959 1.011 1.237.433.279.933.418 1.502.418.318 0 .614-.042.885-.126.275-.085.519-.207.731-.369.213-.165.389-.364.528-.6.143-.234.242-.501.297-.802l2.408.011a4.5 4.5 0 0 1-1.462 2.777 4.69 4.69 0 0 1-1.485.89c-.572.217-1.219.325-1.941.325-1.004 0-1.903-.227-2.694-.682-.789-.454-1.412-1.112-1.87-1.974-.454-.861-.682-1.904-.682-3.128 0-1.229.231-2.273.693-3.135.462-.861 1.089-1.517 1.881-1.968.791-.455 1.682-.682 2.672-.682a5.78 5.78 0 0 1 1.815.275c.56.183 1.057.45 1.49.803.432.348.784.775 1.055 1.28.275.507.451 1.086.528 1.738ZM146.203 24.323V22.36h9.249v1.963h-3.448v9.298h-2.353v-9.298h-3.448ZM156.975 33.621V22.36h7.588v1.963h-5.207v2.683h4.817v1.963h-4.817v2.69h5.229v1.962h-7.61ZM166.456 33.621V22.36h4.443c.854 0 1.582.163 2.183.49a3.32 3.32 0 0 1 1.375 1.346c.319.572.478 1.232.478 1.98s-.161 1.408-.484 1.98a3.335 3.335 0 0 1-1.402 1.336c-.609.319-1.345.478-2.21.478h-2.832v-1.908h2.447c.458 0 .835-.079 1.132-.236.301-.162.525-.384.671-.666.15-.286.226-.614.226-.984 0-.374-.076-.7-.226-.979a1.5 1.5 0 0 0-.671-.654c-.3-.158-.681-.237-1.143-.237h-1.606v9.315h-2.381ZM186.418 26.302h-2.409a2.347 2.347 0 0 0-.269-.83 2.126 2.126 0 0 0-.522-.627 2.311 2.311 0 0 0-.737-.396 2.823 2.823 0 0 0-.897-.137c-.582 0-1.09.145-1.523.434-.432.286-.768.704-1.006 1.254-.238.546-.357 1.21-.357 1.99 0 .803.119 1.478.357 2.024.242.546.579.959 1.012 1.237.432.279.933.418 1.501.418.319 0 .614-.042.885-.126.275-.085.519-.207.732-.369.212-.165.388-.364.527-.6.143-.234.242-.501.297-.802l2.409.011a4.482 4.482 0 0 1-1.463 2.777 4.68 4.68 0 0 1-1.485.89c-.571.217-1.218.325-1.941.325-1.004 0-1.902-.227-2.694-.682-.788-.454-1.411-1.112-1.87-1.974-.454-.861-.681-1.904-.681-3.128 0-1.229.231-2.273.692-3.135.462-.861 1.089-1.517 1.881-1.968.792-.455 1.683-.682 2.672-.682.653 0 1.258.091 1.815.275.561.183 1.058.45 1.49.803.433.348.785.775 1.056 1.28.275.507.451 1.086.528 1.738ZM187.696 24.323V22.36h9.249v1.963h-3.448v9.298h-2.353v-9.298h-3.448ZM198.468 33.621V22.36h4.509c.829 0 1.52.123 2.073.368.554.246.97.587 1.248 1.023.279.433.418.931.418 1.496 0 .44-.088.826-.264 1.16-.176.33-.417.601-.725.814a2.986 2.986 0 0 1-1.045.445v.11c.429.018.83.14 1.204.363.378.224.684.537.918.94.235.4.352.876.352 1.43 0 .598-.148 1.13-.445 1.6-.293.466-.728.834-1.303 1.105-.576.272-1.285.407-2.128.407h-4.812Zm2.381-1.946h1.941c.664 0 1.148-.127 1.452-.38.304-.256.456-.597.456-1.023 0-.311-.075-.586-.225-.824a1.532 1.532 0 0 0-.643-.561c-.275-.136-.603-.204-.985-.204h-1.996v2.992Zm0-4.603h1.765a2.1 2.1 0 0 0 .869-.17c.257-.117.458-.283.605-.495.15-.213.225-.468.225-.764 0-.407-.144-.735-.434-.985-.286-.249-.693-.374-1.221-.374h-1.809v2.788ZM219.054 27.99c0 1.229-.233 2.273-.698 3.135-.462.861-1.093 1.52-1.892 1.974-.795.45-1.69.676-2.683.676-1.001 0-1.899-.227-2.695-.682-.795-.454-1.424-1.112-1.886-1.974-.461-.861-.692-1.904-.692-3.128 0-1.229.231-2.273.692-3.135.462-.861 1.091-1.517 1.886-1.968.796-.455 1.694-.682 2.695-.682.993 0 1.888.227 2.683.682.799.45 1.43 1.107 1.892 1.968.465.862.698 1.906.698 3.134Zm-2.414 0c0-.795-.119-1.466-.357-2.012-.235-.546-.567-.96-.995-1.243-.429-.282-.932-.423-1.507-.423-.576 0-1.078.141-1.507.423-.429.282-.762.697-1.001 1.243-.234.546-.352 1.217-.352 2.012 0 .796.118 1.467.352 2.013.239.546.572.96 1.001 1.243.429.282.931.423 1.507.423.575 0 1.078-.141 1.507-.423.428-.282.76-.697.995-1.243.238-.546.357-1.217.357-2.012ZM234.338 26.302h-2.409a2.347 2.347 0 0 0-.269-.83 2.126 2.126 0 0 0-.522-.627 2.311 2.311 0 0 0-.737-.396 2.823 2.823 0 0 0-.897-.137c-.582 0-1.09.145-1.523.434-.432.286-.768.704-1.006 1.254-.238.546-.357 1.21-.357 1.99 0 .803.119 1.478.357 2.024.242.546.579.959 1.012 1.237.432.279.933.418 1.501.418.319 0 .614-.042.885-.126.275-.085.519-.207.732-.369.212-.165.388-.364.527-.6.143-.234.242-.501.297-.802l2.409.011a4.336 4.336 0 0 1-.468 1.496 4.482 4.482 0 0 1-.995 1.281c-.414.374-.909.67-1.484.89-.572.217-1.219.325-1.942.325-1.004 0-1.902-.227-2.694-.682-.788-.454-1.411-1.112-1.869-1.974-.455-.861-.682-1.904-.682-3.128 0-1.229.231-2.273.693-3.135.461-.861 1.088-1.517 1.88-1.968.792-.455 1.683-.682 2.672-.682.653 0 1.258.091 1.815.275.561.183 1.058.45 1.49.803.433.348.785.775 1.056 1.28.275.507.451 1.086.528 1.738ZM245.618 22.36V33.62h-2.353v-9.326h-4.553v9.326h-2.353V22.36h9.259ZM258.234 27.99c0 1.229-.233 2.273-.698 3.135-.462.861-1.093 1.52-1.892 1.974-.795.45-1.69.676-2.683.676-1.001 0-1.899-.227-2.695-.682-.795-.454-1.424-1.112-1.886-1.974-.462-.861-.693-1.904-.693-3.128 0-1.229.231-2.273.693-3.135.462-.861 1.091-1.517 1.886-1.968.796-.455 1.694-.682 2.695-.682.993 0 1.888.227 2.683.682.799.45 1.43 1.107 1.892 1.968.465.862.698 1.906.698 3.134Zm-2.414 0c0-.795-.119-1.466-.357-2.012-.235-.546-.567-.96-.996-1.243-.429-.282-.931-.423-1.506-.423-.576 0-1.078.141-1.507.423-.429.282-.762.697-1.001 1.243-.234.546-.352 1.217-.352 2.012 0 .796.118 1.467.352 2.013.239.546.572.96 1.001 1.243.429.282.931.423 1.507.423.575 0 1.077-.141 1.506-.423.429-.282.761-.697.996-1.243.238-.546.357-1.217.357-2.012ZM259.998 33.621V22.36h4.443c.854 0 1.581.163 2.183.49a3.312 3.312 0 0 1 1.374 1.346c.319.572.479 1.232.479 1.98s-.162 1.408-.484 1.98a3.341 3.341 0 0 1-1.402 1.336c-.609.319-1.346.478-2.211.478h-2.832v-1.908h2.447c.458 0 .836-.079 1.133-.236.301-.162.524-.384.671-.666.15-.286.225-.614.225-.984 0-.374-.075-.7-.225-.979-.147-.282-.37-.5-.671-.654-.301-.158-.682-.237-1.144-.237h-1.605v9.315h-2.381ZM269.594 24.323V22.36h9.249v1.963h-3.448v9.298h-2.353v-9.298h-3.448ZM280.931 33.621h-2.551l3.887-11.261h3.069l3.882 11.261h-2.551l-2.821-8.688h-.088l-2.827 8.688Zm-.159-4.426h6.026v1.858h-6.026v-1.858ZM86.493 52.203V40.94h4.444c.854 0 1.581.163 2.183.49.6.322 1.059.771 1.374 1.347.32.572.478 1.231.478 1.98 0 .747-.16 1.407-.483 1.979a3.338 3.338 0 0 1-1.403 1.336c-.608.319-1.345.478-2.21.478h-2.832v-1.908h2.447c.458 0 .836-.078 1.133-.236.3-.161.524-.383.67-.665.151-.286.226-.614.226-.985 0-.374-.075-.7-.225-.978-.147-.283-.37-.5-.671-.655-.3-.157-.682-.236-1.144-.236h-1.606v9.315h-2.38ZM106.868 46.572c0 1.228-.233 2.273-.699 3.134-.462.862-1.092 1.52-1.891 1.974-.796.451-1.69.676-2.684.676-1 0-1.898-.227-2.694-.681-.796-.455-1.424-1.113-1.886-1.974-.462-.862-.693-1.905-.693-3.13 0-1.227.231-2.272.693-3.133.462-.862 1.09-1.518 1.886-1.969.795-.455 1.694-.682 2.694-.682.994 0 1.888.227 2.684.682.799.45 1.429 1.107 1.891 1.968.466.862.699 1.907.699 3.135Zm-2.414 0c0-.796-.119-1.467-.358-2.013-.234-.546-.566-.96-.995-1.242-.429-.283-.931-.424-1.507-.424-.575 0-1.077.141-1.506.424-.43.282-.763.696-1.001 1.242-.235.547-.352 1.217-.352 2.013 0 .795.117 1.466.352 2.012.238.547.572.96 1.001 1.243.429.282.931.424 1.506.424.576 0 1.078-.142 1.507-.424.429-.282.761-.696.995-1.243.239-.546.358-1.217.358-2.012ZM118.568 44.884h-2.409a2.368 2.368 0 0 0-.269-.83 2.114 2.114 0 0 0-.523-.628 2.295 2.295 0 0 0-.736-.395 2.823 2.823 0 0 0-.897-.138c-.583 0-1.09.145-1.523.435-.432.285-.768.703-1.006 1.253-.238.546-.358 1.21-.358 1.99 0 .804.12 1.478.358 2.024.242.547.579.959 1.012 1.238.432.278.933.418 1.501.418.319 0 .614-.043.885-.127a2.114 2.114 0 0 0 1.259-.968c.143-.234.242-.502.297-.803l2.409.011a4.378 4.378 0 0 1-.468 1.496 4.481 4.481 0 0 1-.995 1.281c-.414.374-.909.671-1.485.891-.572.216-1.219.325-1.941.325-1.004 0-1.902-.228-2.694-.682-.788-.455-1.411-1.113-1.87-1.974-.454-.862-.682-1.905-.682-3.13 0-1.227.231-2.272.693-3.133.462-.862 1.089-1.518 1.881-1.969.792-.455 1.682-.682 2.672-.682.653 0 1.258.092 1.815.275.561.183 1.057.451 1.49.803.433.348.784.775 1.056 1.281.275.506.451 1.085.528 1.738ZM130.211 44.884h-2.408a2.348 2.348 0 0 0-.27-.83 2.096 2.096 0 0 0-.522-.628 2.3 2.3 0 0 0-.737-.395 2.82 2.82 0 0 0-.896-.138c-.583 0-1.091.145-1.523.435-.433.285-.768.703-1.007 1.253-.238.546-.357 1.21-.357 1.99 0 .804.119 1.478.357 2.024.242.547.58.959 1.012 1.238.433.278.933.418 1.501.418.319 0 .614-.043.886-.127.275-.084.518-.207.731-.368a2.13 2.13 0 0 0 .528-.6c.143-.234.242-.502.297-.803l2.408.011a4.355 4.355 0 0 1-.467 1.496 4.517 4.517 0 0 1-.995 1.281 4.7 4.7 0 0 1-1.485.891c-.572.216-1.219.325-1.941.325-1.005 0-1.903-.228-2.695-.682-.788-.455-1.411-1.113-1.869-1.974-.455-.862-.682-1.905-.682-3.13 0-1.227.231-2.272.693-3.133.462-.862 1.089-1.518 1.88-1.969.792-.455 1.683-.682 2.673-.682.652 0 1.257.092 1.814.275.561.183 1.058.451 1.491.803.432.348.784.775 1.055 1.281.275.506.451 1.085.528 1.738ZM131.919 40.941h2.375v7.082h.093l4.867-7.082h2.084v11.261h-2.381v-7.087h-.083l-4.893 7.087h-2.062v-11.26ZM143.305 40.941h2.375v7.082h.094l4.866-7.082h2.084v11.261h-2.381v-7.087h-.082l-4.894 7.087h-2.062v-11.26Zm5.807-2.947h1.633c-.004.667-.251 1.204-.743 1.61-.487.408-1.147.611-1.979.611-.836 0-1.498-.203-1.985-.61-.488-.407-.731-.944-.731-1.611h1.622c-.004.253.077.48.242.682.168.201.452.302.852.302.388 0 .667-.099.836-.297.168-.198.253-.427.253-.687ZM164.628 44.884h-2.409a2.368 2.368 0 0 0-.269-.83 2.114 2.114 0 0 0-.523-.628 2.295 2.295 0 0 0-.736-.395 2.823 2.823 0 0 0-.897-.138c-.583 0-1.09.145-1.523.435-.432.285-.768.703-1.006 1.253-.238.546-.358 1.21-.358 1.99 0 .804.12 1.478.358 2.024.242.547.579.959 1.012 1.238.432.278.933.418 1.501.418.319 0 .614-.043.885-.127a2.114 2.114 0 0 0 1.259-.968c.143-.234.242-.502.297-.803l2.409.011a4.357 4.357 0 0 1-.468 1.496 4.481 4.481 0 0 1-.995 1.281c-.414.374-.909.671-1.485.891-.571.216-1.218.325-1.941.325-1.004 0-1.902-.228-2.694-.682-.788-.455-1.411-1.113-1.87-1.974-.454-.862-.681-1.905-.681-3.13 0-1.227.23-2.272.692-3.133.462-.862 1.089-1.518 1.881-1.969.792-.455 1.683-.682 2.672-.682.653 0 1.258.092 1.815.275.561.183 1.058.451 1.49.803.433.348.785.775 1.056 1.281.275.506.451 1.085.528 1.738ZM173.148 52.203l-3.618-4.8h-.814v4.8h-2.381V40.94h2.381v4.498h.478l3.74-4.498h2.963l-4.393 5.224 4.597 6.038h-2.953ZM187.012 46.572c0 1.228-.233 2.273-.699 3.134-.462.862-1.092 1.52-1.891 1.974-.796.451-1.69.676-2.684.676-1 0-1.899-.227-2.694-.681-.795-.455-1.424-1.113-1.886-1.974-.462-.862-.693-1.905-.693-3.13 0-1.227.231-2.272.693-3.133.462-.862 1.091-1.518 1.886-1.969.795-.455 1.694-.682 2.694-.682.994 0 1.888.227 2.684.682.799.45 1.429 1.107 1.891 1.968.466.862.699 1.907.699 3.135Zm-2.414 0c0-.796-.119-1.467-.358-2.013-.234-.546-.566-.96-.995-1.242-.429-.283-.931-.424-1.507-.424-.575 0-1.077.141-1.506.424-.429.282-.763.696-1.001 1.242-.235.547-.352 1.217-.352 2.013 0 .795.117 1.466.352 2.012.238.547.572.96 1.001 1.243.429.282.931.424 1.506.424.576 0 1.078-.142 1.507-.424.429-.282.761-.696.995-1.243.239-.546.358-1.217.358-2.012ZM188.775 40.941h2.376v7.082h.093l4.867-7.082h2.084v11.261h-2.381v-7.087h-.083l-4.894 7.087h-2.062v-11.26Zm5.807-2.947h1.633c-.004.667-.251 1.204-.742 1.61-.488.408-1.148.611-1.98.611-.836 0-1.497-.203-1.985-.61-.487-.407-.731-.944-.731-1.611h1.622c-.004.253.077.48.242.682.169.201.453.302.852.302.389 0 .667-.099.836-.297.169-.198.253-.427.253-.687ZM208.2 42.15h2.518c.902 0 1.701.191 2.397.573a4.135 4.135 0 0 1 1.645 1.61c.399.69.599 1.5.599 2.431 0 .902-.2 1.688-.599 2.36a4.125 4.125 0 0 1-1.645 1.566c-.696.37-1.495.556-2.397.556H208.2c-.906 0-1.709-.184-2.409-.55-.7-.37-1.25-.89-1.649-1.562-.396-.67-.594-1.462-.594-2.375 0-.931.199-1.742.599-2.43a4.174 4.174 0 0 1 1.655-1.606c.7-.382 1.5-.572 2.398-.572Zm0 1.991c-.484 0-.911.098-1.282.292-.366.19-.652.48-.857.869-.206.388-.308.874-.308 1.457 0 .557.104 1.02.313 1.39.213.371.502.648.869.831.367.184.788.275 1.265.275h2.535c.48 0 .9-.093 1.259-.28.363-.187.643-.466.841-.836.202-.37.302-.829.302-1.375 0-.583-.1-1.068-.302-1.457a1.981 1.981 0 0 0-.841-.874c-.359-.194-.779-.292-1.259-.292H208.2Zm2.386-3.398v11.921h-2.26v-11.92h2.26ZM217.113 52.203V40.94h7.588v1.963h-5.207v2.683h4.817v1.964h-4.817v2.688h5.229v1.964h-7.61ZM225.984 54.919v-4.614h.764c.261-.187.499-.45.715-.791.216-.345.401-.82.555-1.425.154-.608.264-1.404.33-2.386l.319-4.762h7.451v9.364h1.232v4.603h-2.288v-2.706h-6.791v2.717h-2.287Zm3.514-4.614h4.333v-7.4h-3.019l-.176 2.798a16.194 16.194 0 0 1-.237 1.98 9.872 9.872 0 0 1-.39 1.512c-.15.429-.321.799-.511 1.11ZM238.797 52.203V40.94h7.589v1.963h-5.208v2.683h4.817v1.964h-4.817v2.688h5.23v1.964h-7.611ZM248.279 52.203V40.94h4.442c.855 0 1.582.163 2.183.49.602.322 1.06.771 1.375 1.347.319.572.479 1.231.479 1.98 0 .747-.162 1.407-.484 1.979a3.338 3.338 0 0 1-1.403 1.336c-.608.319-1.345.478-2.21.478h-2.832v-1.908h2.447c.458 0 .836-.078 1.133-.236.3-.161.524-.383.671-.665.15-.286.225-.614.225-.985 0-.374-.075-.7-.225-.978a1.51 1.51 0 0 0-.671-.655c-.301-.157-.682-.236-1.144-.236h-1.606v9.315h-2.38ZM258.945 52.203h-2.552l3.888-11.262h3.068l3.882 11.261h-2.551l-2.821-8.688h-.088l-2.826 8.688Zm-.16-4.427h6.027v1.859h-6.027v-1.859ZM279.436 50.3l-.138 4.564h-2.265v-2.661h-.792V50.3h3.195Zm-10.849 1.903V40.94h2.287v9.348h4.685v-9.348h2.315v11.261h-9.287ZM280.88 40.941h2.376v7.082h.093l4.867-7.082h2.084v11.261h-2.381v-7.087h-.083l-4.894 7.087h-2.062v-11.26ZM292.267 40.941h2.375v7.082h.094l4.866-7.082h2.084v11.261h-2.381v-7.087h-.082l-4.894 7.087h-2.062v-11.26ZM29.019 46.603c.086.344.343.558.486.515.214-.065.343-.579.4-.965.043-.3.279-.837.279-.837l2.523-1.544.551-1.801s-3.145 2.83-3.61 2.916c-.55.087-.422.493-.443.751 0 .408-.343.279-.193.965h.007Zm-.53-17.05a10.952 10.952 0 0 1 4.712-1.35c-.83-3.611-2.502-6.485-4.332-8.094 1.358-.643 2.759-2.38 2.673-3.46-4.332 1.587-12.91-.88-13.59 2.831-.15.794.236 1.973.636 2.338.065-.258.444-1.072 1.659-1.244 4.633-.708 8.708 4.725 8.235 8.972l.008.007Zm10.023 4.919-.743-.043s.215 1.158.107 1.737c-.085.429-.936 1.501-.936 1.501l1.251.107s.958-1.222 1.1-1.544c.173-.322-.085-1.758-.064-1.951.022-.193.3-.537.3-.537l.723.044s.193-.859 0-1.052c-.236-.214.021-.6-.258-1.05-.278-.45-1.744-.172-1.744-.172.064 0 .636 1.115.615 1.673-.022.45-.365 1.287-.365 1.287h.014Zm4.076-11.767c.872-.28 2.38-.3 3.417.643 0-.987-.85-1.866-1.144-1.973-.38.043-1.702.622-2.273 1.33Zm-8.75 20.267c.085.064.3-.086.342-.108.365-.322 1.208-1.243 2.295-1.908 2.252-1.352 2.652-1.738 2.674-1.995.021-.322-.172-.557-.422-.622-.4-.107-3.224-.172-3.146-.279.258-.193 1.23-1.394 1.402-1.973.15-.536-.258-1.415-.322-1.673-.064-.257.15-.621.15-.621l.85.042s.215-.793.108-.922c-.129-.15-.15-.6-.15-.6v-.043c-.129-.73-.722-.816-1.315-.644-.594.172-2.445.708-3.525.73-.257.729 1.845 1.5 1.744 1.565-.107.065-2.488.407-2.845.343-.364-.064-3.289.108-4.096-.064-.28-.065-1.123.365-.808.514.064.022.593-.107.808 0 .3.13.257.344.421.322.193 0 .172-.043.258-.15.086-.107.215-.172.257-.214.022-.022.043-.022.064-.022l5.563.6S34.38 37.33 33 38.04c-.872.471-1.822 2.788-2.165 3.567a.642.642 0 0 1-.365.343c-.193.065-.421.15-.593.28-.322.213-1.888 1.908-2.06 2.23-.192.322-.657.257-.786.45-.3.407.193.837-.15 1.158-.171.193.15.986.3.986.236 0 .28-.064.465-.643.186-.579.236-1.18.379-1.415.15-.236 3.289-2.102 3.739-2.531.364-.343 1.723-1.737 2.23-2.273a.696.696 0 0 1 .486-.215l1.91-.064s-.787.75-1.273 1.115c-.379-.129-.637-.107-.744-.021-.257.15.043.729-.3 1.093-.214.28-.3.837-.236.88v-.007Zm13.246-22.398c1.187.193 1.573 1.008 1.659 1.244.4-.343.786-1.544.636-2.338-.7-3.717-9.28-1.244-13.59-2.83-.086 1.072 1.336 2.809 2.674 3.46-1.824 1.587-3.504 4.489-4.333 8.07 1.702.065 3.288.494 4.69 1.244-.422-4.21 3.632-9.536 8.257-8.843l.007-.007Zm3.76-9.623c-.107-.342 3.44-.364 3.44 1.866 0 1.502-2.124 2.21-2.124 3.76 0 .73.765 1.245 1.022 1.245-.55-2.488 1.723-1.18 2.316-.73-1.208-3.352 1.509-3.33 1.251-4.875-.193-1.072-2.566-.75-3.417-1.287-1.53-.965-3.331-4.725-4.525-.965 2.21 2.059.937 5.111-1.887 5.111 0 0-.022.451 0 .472 3.374-.128 4.546-2.595 3.925-4.597Zm-6.262-2.337-1.166-1.415-1.165 1.415 1.166 1.394 1.165-1.394ZM21.248 23.348c1.065-.923 2.566-.901 3.417-.643-.572-.708-1.887-1.266-2.273-1.352-.3.107-1.144.987-1.144 1.995Zm32.756 26.5-1.465-1.565-1.466 1.566 1.465 1.373 1.466-1.373Zm.722 1.674-2.188 1.737-2.187-1.737a3.853 3.853 0 0 0-1.765 2.316c-1.316.193-4.884-.622-4.547-1.137 3.102-4.382 1.887-7.363-.53-8.328-1.822 3.61-5.518 6.055-9.786 6.055s-8.028-2.488-9.83-6.14c-2.545.879-3.925 3.91-.743 8.413.343.515-3.332 1.373-5.055 1.158a2.518 2.518 0 0 0-1.844-.772c-.322 0-.636.064-.916.172 0 0-6.776-6.463-6.898-6.527l.064-.129c.38-.73-.214-1.522-.571-1.458.421-.515.443-2.81-1.952-3.353.064.45.107 1.394.107 1.394s-1.866-1.008-2.802-.129c-.83.987.321 2.745.321 2.745s-.957.022-1.422-.021c.68 2.338 2.995 2.188 3.503 1.716-.043.364.808.9 1.508.472l.322-.15c.064.064 6.67 6.355 6.67 6.355a2.21 2.21 0 0 0-.343 1.608c.15.923.915 1.695 1.908 1.888.701.15 1.337 0 1.866-.3L19.36 59c.15.15.365.235.594.214.422-.021.744-.386.722-.772a.714.714 0 0 0-.236-.45c-.021-.022-1.78-1.673-1.78-1.673 1.444-1.03 4.139-1.737 6.37-1.737.4 0 .572-.344.443-.666-1.022-2.445 1.165-4.231 3.417-2.787.98.622 1.973 1.865 2.738 3.953-3.696.9-8.343 3.396-9.28 6.098-.364 1.05.83 2.466 2.296 2.766.064.022.107-.021.128-.085.765-4.04 5.076-7.063 7.328-7.578.108.3.086.214.193.514-2.445 1.159-4.818 3.632-5.497 6.549-.322 1.33 1.165 2.552 2.401 2.874.065.021.13-.022.13-.086.235-3.696 1.844-6.827 3.309-8.264.043.279.064.558.086.837 0 0-1.487 4.167-1.487 7.212 0 1.416 2.08 2.403 2.402 2.531.379-.128 2.488-1.115 2.488-2.53 0-3.046-1.487-7.214-1.487-7.214.022-.278.043-.558.086-.836 1.444 1.437 3.08 4.576 3.31 8.264 0 .064.064.107.128.086 1.23-.322 2.717-1.544 2.402-2.874-.679-2.917-3.06-5.39-5.498-6.548.108-.3.087-.215.194-.515 2.251.514 6.563 3.524 7.328 7.578 0 .043.064.085.128.085 1.444-.278 2.652-1.715 2.273-2.766-.936-2.702-5.583-5.198-9.279-6.098.743-2.08 1.766-3.31 2.738-3.953 2.252-1.437 4.44.321 3.417 2.787-.129.322.043.666.444.666 2.523 0 5.647.922 6.877 2.144.786 1.18 2.252 1.952 3.889 1.78 1.866-.193 3.395-1.587 3.61-3.353.107-1.544-.68-2.895-1.93-3.653l-.029.022Zm-41.15-18.037c.13.279.259.536.38.794-3.968 2.294-9.536 2.037-10.359 1.994-.064 0-.107.043-.107.107.065 2.767 2.738 3.525 5.119 3.203 2.015-.279 4.84-1.63 6.834-3.16.193.215.4.429.636.643-1.909 3.16-6.39 4.447-7.856 4.555-.065 0-.108.085-.086.128.958 1.673 3.124 2.21 5.476 1.073 1.401-.687 3.145-2.446 4.354-4.469.279.13.55.258.85.344-.743 3.76-4.46 6.055-5.118 6.44-.043.022-.065.087-.022.15 1.101 1.245 3.653 1.267 5.226-.535.958-1.116 1.702-3.182 2.102-5.69.421 0 1.065.063 1.744.278v-.064c0-1.201.193-2.38.55-3.482a7.186 7.186 0 0 1-1.572-.107c-2.038-.365-3.589-2.038-3.589-4.06 0-1.16.508-2.21 1.337-2.96a.354.354 0 0 0-.043-.558c-.107-.064-.193-.129-.278-.172C11.997 23.362 5.477 12.76 4.777 11.595c-.043-.065-.107-.065-.15-.021-2.188 1.951-2.424 5.754-.107 8.757 1.53 1.973 4.732 4.146 8.028 6.012a8.62 8.62 0 0 0-.086 1.051C5.685 25.936 1.402 21.232.695 20.438c-.043-.064-.129-.043-.172.021-1.25 2.467-.171 5.777 2.317 7.15 2.166 1.222 5.561 1.93 9.765 2.423.043.3.107.6.172.901-6.284.858-11.188-1.458-12.04-1.887-.064-.022-.15 0-.15.064-.321 2.638 1.337 4.747 4.161 5.218 2.824.558 8.815-.857 8.815-.857l.014.014Zm52.917-4.36c-.829.428-5.754 2.744-12.038 1.887.064-.3.128-.601.171-.901 4.182-.494 7.6-1.223 9.766-2.424 2.466-1.394 3.545-4.704 2.316-7.149a.113.113 0 0 0-.172-.021c-.679.794-4.99 5.498-11.767 6.956a8.366 8.366 0 0 0-.107-1.05c3.288-1.867 6.498-4.04 8.028-6.013 2.316-2.982 2.102-6.806-.107-8.758-.043-.042-.129-.021-.15.022-.7 1.158-7.22 11.767-14.377 16.342-.064.043-.171.107-.257.172-.214.128-.236.386-.043.557.83.75 1.337 1.802 1.337 2.96 0 2.016-1.552 3.696-3.589 4.06-.379.065-.83.108-1.316.108.358 1.093.551 2.251.551 3.46a6.14 6.14 0 0 1 1.487-.215c.4 2.488 1.144 4.576 2.102 5.69 1.551 1.802 4.097 1.78 5.226.537.043-.043.021-.107-.022-.15-.657-.365-4.375-2.66-5.118-6.441.3-.107.572-.215.85-.344 1.187 1.995 2.953 3.782 4.354 4.469 2.36 1.136 4.525.579 5.476-1.073.043-.064 0-.128-.086-.128-1.465-.108-5.948-1.416-7.857-4.554.215-.193.422-.408.637-.644 1.995 1.523 4.819 2.874 6.834 3.16 2.36.322 5.055-.429 5.119-3.202 0-.065-.043-.108-.107-.108-.85.043-6.413.3-10.359-1.994.129-.258.257-.537.379-.794 0 0 5.99 1.416 8.836.944 2.824-.472 4.482-2.574 4.16-5.219-.042-.107-.128-.15-.171-.128l.014-.015ZM35.24 2.544 33.6.55l-1.637 1.995 1.637 2.102 1.638-2.102ZM24.958 8.62l-1.165-1.416-1.165 1.416 1.165 1.394 1.165-1.394Zm1.023 6.977c3.653 0 5.29-2.251 5.776-4.21h3.717c.486 1.951 2.145 4.21 5.776 4.21h4.333s.764-1.03.958-1.544c.68-1.844-.194-2.702-1.466-2.702l-1.659 1.501-1.658-1.501c-1.273 0-2.145.858-1.466 2.702.086.236.3.58.487.88-1.53-.215-3.503-1.266-3.925-3.546 0 0 1.144-1.823 1.423-2.552 1.022-2.638-.28-3.74-2.21-3.74l-2.466 2.917-2.466-2.916c-1.909 0-3.225 1.072-2.21 3.739.28.729 1.423 2.552 1.423 2.552-.421 2.273-2.401 3.331-3.924 3.546.192-.3.4-.644.486-.88.68-1.844-.193-2.702-1.466-2.702l-1.658 1.501-1.659-1.501c-1.272 0-2.144.858-1.465 2.702.214.515.957 1.544.957 1.544h4.361Zm-14.248 1.544c.615-.471 2.867-1.78 2.316.73.236 0 1.022-.537 1.022-1.244 0-1.544-2.123-2.252-2.123-3.76 0-2.23 3.546-2.23 3.439-1.866-.615 1.973.55 4.468 3.91 4.64.022-.044 0-.473 0-.473-2.803 0-4.096-3.045-1.887-5.111-1.187-3.76-2.995 0-4.526.965-.85.536-3.224.214-3.417 1.287-.257 1.48 2.488 1.458 1.273 4.832h-.007ZM36.49 43.508c.107-.15.786-1.201 1.079-1.459.3-.257.322-.343 1.866-1.136 1.722-.88 2.337-1.587 2.359-1.888.043-.407-.3-.708-.722-.793-.422-.086-1.38-.129-1.38-.129.129 0 .572.472.593.772.022.3-.085.494-.4.772-.321.28-1.573 1.051-2.36 1.544-.786.515-.786.408-.979.43-.193.021-.235.342-.193.686.065.343-.193.579-.235.836-.065.258.257.515.357.365h.014Z"/></svg>