<svg xmlns="http://www.w3.org/2000/svg" width="314" height="90" fill="none"><g fill="#D1D5DB" clip-path="url(#a)"><path d="M28.003 38.819a4.854 4.854 0 0 1-3.915-1.423.121.121 0 0 1 .115-.205 6.81 6.81 0 0 0 2.24.158 6.828 6.828 0 0 0 5.654-4.2c.047-.115.213-.098.232.025a4.867 4.867 0 0 1-4.326 5.645Zm-6.698-4.01c-.342-3.536 2.24-6.679 5.764-7.021 3.523-.344 6.651 2.249 6.994 5.783.342 3.54-2.242 6.686-5.765 7.023-3.517.34-6.653-2.25-6.993-5.786Zm45.351 22.443c-.724 17.401-14.9 31.476-32.24 32.022-1.336.04-2.656.005-3.95-.106a.35.35 0 0 1-.271-.52l4.683-8.355c.681-1.216 1.161-2.444 1.334-3.83.219-1.81.936-7.188.936-7.188.1-1.392.813-2.878 2.129-3.318l2.32-.625c1.318-.44 2.368 0 3.027 1.23.438.816 1.657 3.285 2.161 4.277.329.652.216 1.276-.12 1.664-1.712 1.961-2.8 3.112-4.252 4.783-.978 1.129-1.791 2.804-.15 4.243 1.608 1.412 3.159-.095 4.112-1.036 1.236-1.228 3.135-3.536 4.315-4.913 1.044-1.222 1.63-2.084 1.773-3.56.057-.607 0-1.235-.208-1.91-.45-1.46-4.008-9.893-6.46-16.557-2.116-5.752-3.194-11.757-2.556-17.853L44.4 24.543a.23.23 0 0 1 .308-.193c13.24 4.818 22.576 17.808 21.947 32.902Zm-37.23 21.18c.606-1.254 1.1-3.006 1.2-4.397 0 0 .739-8.403.795-11.211.037-1.901-1.695-6.31-2.577-8.381-1.743-4.109-5.215-4.723-10.49-7.098-2.742-1.229-9.524-3.73-9.524-3.73-1.325-.503-1.756-1.784-1.274-3.091.486-1.306 2.108-1.798 3.425-1.346 3.708 1.274 7.101 2.796 13.408 5.194 4.103 1.558 5.958.523 8.727-1.007 1.949-1.077 3.972-1.837 4.455-5.299.291-2.081 1.51-11.976 1.872-14.93a.233.233 0 0 0-.191-.258 33.684 33.684 0 0 0-5.909-.534C14.926 22.344 0 37.332 0 55.819c0 15.36 10.309 28.298 24.358 32.236.214.059.44-.044.536-.244l4.532-9.38Zm19.99-63.076-5.48 2.845c-.559.29-1.246.071-1.534-.489l-6.42-12.463a1.145 1.145 0 0 1 .492-1.539l5.48-2.846a1.137 1.137 0 0 1 1.533.493l6.418 12.46c.29.559.07 1.248-.489 1.54ZM277.638 28.37l-1.619 7.99h-7.701v22.797h-8.78V36.361h-7.703l-1.616-7.992h27.419Zm-167.992 0h26.528l-1.617 7.99h-7.701v22.797h-8.733V36.361h-8.477v-7.992ZM85.545 43.375c0 6.56 4.337 7.338 9.19 7.338 2.654 0 5.502-.52 7.7-1.102l.129 8.183c-2.847.976-6.342 1.559-9.77 1.559-8.863 0-16.37-4.677-16.37-15.718 0-9.16 6.017-15.85 16.37-15.85 3.558 0 7.376.713 10.419 2.34l-2.913 7.532c-2.006-.712-4.79-1.233-7.184-1.233-5.112 0-7.571 2.339-7.571 6.95Zm70.719 8.12c-4.337 0-7.444-3.054-7.444-7.73 0-4.677 3.107-7.731 7.444-7.731 4.334 0 7.44 3.054 7.44 7.73 0 4.677-3.106 7.73-7.44 7.73Zm0-23.71c-8.996 0-16.243 6.3-16.243 15.98 0 9.676 7.247 15.976 16.243 15.976 8.991 0 16.239-6.3 16.239-15.976 0-9.68-7.248-15.98-16.239-15.98Zm26.944.583h23.228v30.788h-8.734V36.361h-6.876l-.713 10.457c-.584 6.366-.775 12.34-9.705 12.34h-3.866l1.085-7.5c4.925 0 4.436-1.025 5.581-23.289ZM230.6 51.495c-4.335 0-7.44-3.053-7.44-7.73 0-4.676 3.105-7.73 7.44-7.73 4.337 0 7.444 3.054 7.444 7.73 0 4.677-3.107 7.73-7.444 7.73Zm0-23.71c-8.992 0-16.239 6.3-16.239 15.98 0 9.677 7.247 15.977 16.239 15.977 8.994 0 16.24-6.3 16.24-15.976 0-9.68-7.246-15.98-16.24-15.98Zm66.655 23.71c-4.334 0-7.44-3.053-7.44-7.73 0-4.676 3.106-7.73 7.44-7.73 4.334 0 7.443 3.054 7.443 7.73 0 4.677-3.109 7.73-7.443 7.73Zm0-23.71c-8.993 0-16.24 6.3-16.24 15.98 0 9.677 7.247 15.977 16.24 15.977 8.992 0 16.241-6.3 16.241-15.976 0-9.68-7.249-15.98-16.241-15.98ZM88.374 71.413h-6.48v12.035h-1.78V69.96h8.26v1.454ZM89.812 78.547c0 1.111.257 2.004.771 2.678.515.673 1.202 1.01 2.064 1.01.866 0 1.556-.342 2.066-1.024.51-.682.766-1.638.766-2.868 0-1.098-.26-1.99-.779-2.673-.521-.681-1.21-1.023-2.073-1.023-.842 0-1.523.337-2.039 1.01-.517.674-.776 1.637-.776 2.89Zm-1.716-.204c0-.982.192-1.865.577-2.65.384-.783.92-1.389 1.606-1.815.685-.427 1.469-.639 2.348-.639 1.36 0 2.46.472 3.3 1.417.84.945 1.26 2.202 1.26 3.772v.12c0 .975-.186 1.85-.559 2.625-.371.776-.904 1.38-1.596 1.812-.692.432-1.488.648-2.385.648-1.355 0-2.45-.473-3.292-1.417-.84-.945-1.26-2.196-1.26-3.752v-.121ZM103.332 82.235c.61 0 1.142-.186 1.597-.556.456-.372.707-.834.758-1.39h1.615c-.032.574-.229 1.12-.592 1.64-.362.52-.847.932-1.453 1.24a4.18 4.18 0 0 1-1.925.464c-1.36 0-2.44-.454-3.243-1.367-.803-.91-1.204-2.157-1.204-3.737v-.288c0-.975.178-1.844.535-2.603.356-.759.868-1.35 1.537-1.77.666-.42 1.456-.629 2.366-.629 1.12 0 2.05.336 2.793 1.01.741.672 1.136 1.546 1.186 2.621h-1.615c-.051-.648-.295-1.18-.735-1.598-.44-.417-.983-.625-1.629-.625-.867 0-1.54.313-2.016.94-.477.627-.716 1.534-.716 2.719v.326c0 1.154.237 2.043.712 2.667.473.624 1.15.936 2.029.936ZM112.489 80.938l2.327-7.514h1.826l-4.013 11.57c-.623 1.67-1.61 2.503-2.964 2.503l-.323-.028-.636-.12v-1.39l.462.037c.578 0 1.028-.118 1.351-.352.323-.234.589-.665.798-1.287l.379-1.02-3.563-9.913h1.865l2.491 7.514ZM119.587 82.049h4.587v-7.04h-3.075l-.101 2.39c-.104 1.993-.575 3.545-1.411 4.65Zm-2.022 0 .591-.732c.665-.865 1.042-2.162 1.135-3.891l.157-4.002h6.432v8.625h1.283v4.346h-1.707v-2.947h-6.967v2.947h-1.708l.009-4.346h.775ZM132.387 82.142c.534 0 1.043-.139 1.523-.417.48-.278.827-.638 1.043-1.084v-2.057h-1.34c-2.092 0-3.138.614-3.138 1.844 0 .537.18.957.536 1.26.356.303.815.454 1.376.454Zm2.832 1.307c-.099-.198-.178-.55-.239-1.057-.793.827-1.741 1.241-2.842 1.241-.984 0-1.792-.279-2.423-.837-.631-.56-.947-1.268-.947-2.127 0-1.044.396-1.854 1.188-2.433.789-.577 1.902-.865 3.336-.865h1.661v-.787c0-.6-.18-1.077-.537-1.432-.356-.355-.882-.534-1.578-.534-.609 0-1.12.155-1.53.465-.413.308-.619.681-.619 1.12h-1.718c0-.5.178-.984.532-1.45.353-.466.833-.835 1.439-1.106a4.818 4.818 0 0 1 1.999-.408c1.15 0 2.051.288 2.704.866.652.577.99 1.373 1.014 2.386v4.612c0 .922.117 1.654.351 2.197v.149h-1.791ZM146.066 78.353c0-1.13-.239-2.022-.72-2.678-.479-.654-1.138-.982-1.974-.982-1.034 0-1.81.46-2.326 1.38v4.79c.51.914 1.292 1.372 2.343 1.372.819 0 1.469-.327 1.952-.978.484-.652.725-1.62.725-2.904Zm1.708.194c0 1.526-.347 2.754-1.043 3.688-.696.931-1.638 1.398-2.825 1.398-1.211 0-2.166-.385-2.86-1.158v4.828h-1.708v-13.88h1.56l.083 1.113c.694-.865 1.661-1.297 2.897-1.297 1.202 0 2.15.454 2.848 1.362.698.907 1.048 2.171 1.048 3.788v.158ZM153.946 82.235c.609 0 1.142-.186 1.597-.556.455-.372.707-.834.757-1.39h1.616c-.032.574-.228 1.12-.593 1.64-.362.52-.847.932-1.451 1.24a4.188 4.188 0 0 1-1.926.464c-1.36 0-2.441-.454-3.244-1.367-.803-.91-1.204-2.157-1.204-3.737v-.288c0-.975.18-1.844.536-2.603.356-.759.868-1.35 1.536-1.77.668-.42 1.457-.629 2.367-.629 1.119 0 2.05.336 2.792 1.01.741.672 1.137 1.546 1.187 2.621H156.3c-.05-.648-.294-1.18-.734-1.598-.441-.417-.982-.625-1.629-.625-.867 0-1.54.313-2.016.94-.477.627-.716 1.534-.716 2.719v.326c0 1.154.236 2.043.711 2.667.473.624 1.151.936 2.03.936ZM167.258 74.813h-3.352v8.635h-1.707v-8.635h-3.285v-1.39h8.344v1.39ZM170.782 79.046v3.021h2.824c.714 0 1.247-.131 1.602-.398.353-.265.529-.64.529-1.122 0-1-.731-1.5-2.197-1.5h-2.758Zm0-1.37h2.206c1.599 0 2.398-.47 2.398-1.408 0-.94-.756-1.423-2.269-1.455h-2.335v2.864Zm-1.708 5.772V73.424h3.895c1.329 0 2.35.233 3.059.7.71.465 1.066 1.15 1.066 2.052 0 .463-.138.881-.415 1.255-.277.373-.687.659-1.228.856.604.143 1.088.42 1.455.834.365.415.548.909.548 1.483 0 .92-.336 1.625-1.011 2.112-.673.489-1.624.732-2.856.732h-4.513ZM183.648 74.647c-.689 0-1.267.252-1.734.755-.469.503-.757 1.208-.869 2.117h5.003v-.13c-.05-.871-.282-1.545-.702-2.025-.418-.478-.984-.717-1.698-.717Zm.213 8.986c-1.354 0-2.456-.445-3.304-1.338-.85-.894-1.276-2.087-1.276-3.581v-.315c0-.995.192-1.882.569-2.664.379-.78.908-1.392 1.587-1.834a3.986 3.986 0 0 1 2.211-.662c1.298 0 2.307.429 3.028 1.288.719.857 1.08 2.087 1.08 3.687v.713h-6.767c.026.988.313 1.787.865 2.395.55.61 1.249.913 2.099.913.602 0 1.114-.124 1.532-.372a3.826 3.826 0 0 0 1.098-.98l1.043.815c-.837 1.29-2.092 1.935-3.765 1.935ZM197.888 83.448h-1.708v-4.28h-4.585v4.28h-1.718V73.424h1.718v4.345h4.585v-4.345h1.708v10.024ZM208.789 83.448h-1.708v-4.28h-4.586v4.28h-1.718V73.424h1.718v4.345h4.586v-4.345h1.708v10.024ZM223.222 83.448h-1.716V73.424h1.716v10.024Zm-9.829-5.17v3.77h2.537c.642 0 1.138-.164 1.488-.495.351-.33.525-.783.525-1.357 0-.555-.171-1.01-.512-1.366-.342-.355-.819-.54-1.436-.551h-2.602Zm0-1.399h2.592c1.135.013 2.03.308 2.687.89.659.58.988 1.369.988 2.363 0 1-.339 1.804-1.016 2.408-.675.606-1.586.908-2.73.908h-4.228V73.424h1.707v3.455ZM230.134 74.647c-.688 0-1.268.252-1.736.755-.467.503-.755 1.208-.867 2.117h5.003v-.13c-.049-.871-.283-1.545-.702-2.025-.419-.478-.985-.717-1.698-.717Zm.212 8.986c-1.352 0-2.454-.445-3.303-1.338-.849-.894-1.275-2.087-1.275-3.581v-.315c0-.995.189-1.882.568-2.664.377-.78.908-1.392 1.588-1.834a3.976 3.976 0 0 1 2.21-.662c1.298 0 2.306.429 3.027 1.288.72.857 1.08 2.087 1.08 3.687v.713h-6.766c.024.988.313 1.787.865 2.395.55.61 1.25.913 2.099.913.603 0 1.112-.124 1.531-.372.42-.246.784-.573 1.098-.98l1.043.815c-.836 1.29-2.092 1.935-3.765 1.935ZM249.081 73.424v10.024h-1.715v-8.607h-3.396l-.203 3.752c-.112 1.724-.399 2.957-.865 3.697-.464.74-1.2 1.127-2.21 1.158h-.682v-1.51l.489-.036c.554-.063.95-.384 1.189-.964.24-.581.394-1.655.463-3.225l.184-4.29h6.746ZM253.086 78.547c0 1.111.258 2.004.772 2.678.514.673 1.202 1.01 2.063 1.01.868 0 1.556-.342 2.067-1.024.51-.682.766-1.638.766-2.868 0-1.098-.259-1.99-.779-2.673-.521-.681-1.212-1.023-2.072-1.023-.843 0-1.524.337-2.041 1.01-.516.674-.776 1.637-.776 2.89Zm-1.715-.204c0-.982.192-1.865.576-2.65.386-.783.92-1.389 1.607-1.815.685-.427 1.468-.639 2.349-.639 1.359 0 2.459.472 3.3 1.417.839.945 1.258 2.202 1.258 3.772v.12c0 .975-.186 1.85-.558 2.625-.372.776-.904 1.38-1.597 1.812-.692.432-1.487.648-2.385.648-1.355 0-2.45-.473-3.29-1.417-.841-.945-1.26-2.196-1.26-3.752v-.121ZM269.821 74.813h-3.35v8.635h-1.708v-8.635h-3.284v-1.39h8.342v1.39ZM274.674 74.647c-.689 0-1.266.252-1.734.755-.469.503-.757 1.208-.869 2.117h5.003v-.13c-.05-.871-.282-1.545-.702-2.025-.416-.478-.984-.717-1.698-.717Zm.213 8.986c-1.353 0-2.456-.445-3.304-1.338-.85-.894-1.274-2.087-1.274-3.581v-.315c0-.995.19-1.882.567-2.664.38-.78.908-1.392 1.589-1.834a3.975 3.975 0 0 1 2.209-.662c1.298 0 2.307.429 3.029 1.288.718.857 1.079 2.087 1.079 3.687v.713h-6.766c.025.988.312 1.787.864 2.395.55.61 1.25.913 2.099.913.602 0 1.115-.124 1.533-.372a3.843 3.843 0 0 0 1.099-.98l1.043.815c-.838 1.29-2.093 1.935-3.767 1.935ZM287.485 78.353c0-1.13-.239-2.022-.719-2.678-.481-.654-1.138-.982-1.975-.982-1.034 0-1.811.46-2.327 1.38v4.79c.512.914 1.293 1.372 2.345 1.372.819 0 1.469-.327 1.952-.978.482-.652.724-1.62.724-2.904Zm1.708.194c0 1.526-.348 2.754-1.043 3.688-.696.931-1.637 1.398-2.824 1.398-1.213 0-2.166-.385-2.862-1.158v4.828h-1.706v-13.88h1.559l.083 1.113c.695-.865 1.66-1.297 2.898-1.297 1.2 0 2.149.454 2.847 1.362.698.907 1.048 2.171 1.048 3.788v.158ZM295.293 74.647c-.69 0-1.267.252-1.735.755-.467.503-.757 1.208-.867 2.117h5.002v-.13c-.049-.871-.283-1.545-.702-2.025-.417-.478-.985-.717-1.698-.717Zm.212 8.986c-1.354 0-2.456-.445-3.304-1.338-.85-.894-1.273-2.087-1.273-3.581v-.315c0-.995.189-1.882.567-2.664.378-.78.907-1.392 1.589-1.834a3.97 3.97 0 0 1 2.209-.662c1.298 0 2.306.429 3.028 1.288.719.857 1.079 2.087 1.079 3.687v.713h-6.764c.023.988.31 1.787.862 2.395.55.61 1.249.913 2.099.913.602 0 1.114-.124 1.533-.372a3.843 3.843 0 0 0 1.099-.98l1.043.815c-.837 1.29-2.093 1.935-3.767 1.935ZM307.835 73.424h1.708v10.024h-1.708v-7.31l-4.605 7.31h-1.707V73.424h1.707v7.32l4.605-7.32Z"/></g><defs><clipPath id="a"><path fill="#fff" d="M0 .738h314v89H0z"/></clipPath></defs></svg>
