<svg xmlns="http://www.w3.org/2000/svg" width="357" height="47" fill="none"><path fill="#D1D5DB" d="M188.232 7.603V27.93c-.176 2.86-1.012 5.72-4.752 5.72v7.48c12.672 0 13.068-4.84 13.068-13.156V15.083h15.444V41.13h8.623V7.603h-32.383ZM141.066 18.295c0-10.56-9.416-10.56-17.203-10.692h-17.996V41.13h8.624V28.986h9.372c7.787-.132 17.203-.132 17.203-10.691Zm-17.555 4.267h-9.064v-8.535h9.064c6.291 0 8.843 0 8.843 4.268 0 4.267-2.552 4.267-8.843 4.267ZM83.251 23.398 73.747 7.603H62.925L78.19 31.934l-5.236 9.196h10.34l19.492-33.527H92.491l-9.24 15.795ZM153.342 7.603 137.986 41.13h9.328l2.86-6.424h17.775l2.948 6.424h9.944l-16.06-33.527h-11.439Zm-.308 20.635 5.852-13.287 6.115 13.287h-11.967ZM343.24 7.603 332.9 34.266 322.604 7.603h-13.683V41.13h8.624V16.843l9.811 24.287h10.956l9.944-24.683V41.13h8.623V7.603H343.24ZM275.658 30.79V7.603h-8.58V41.13h9.46l17.819-22.835V41.13h8.624V7.603h-9.592L275.658 30.79ZM253.042 7.603l-8.799 10.34-8.492-10.34h-11.22l14.08 16.94-14.08 16.587h9.68l9.152-10.56 8.711 10.56h11.22l-14.212-17.116 14.212-16.411h-10.252ZM40.441 33.518c-3.52 0-6.38 2.86-6.38 6.38s2.86 6.38 6.38 6.38 6.38-2.86 6.38-6.38c.044-3.52-2.86-6.38-6.38-6.38ZM30.58 10.852A6.38 6.38 0 1 0 18.79 5.968a6.38 6.38 0 0 0 11.789 4.884ZM14.821 26.602A6.38 6.38 0 1 0 3.032 21.72a6.38 6.38 0 0 0 11.789 4.883ZM40.441 17.767c-3.52 0-6.38 2.86-6.38 6.38s2.86 6.38 6.38 6.38 6.38-2.86 6.38-6.38c.044-3.52-2.86-6.38-6.38-6.38ZM24.69 33.518c-3.52 0-6.38 2.86-6.38 6.38s2.86 6.38 6.38 6.38 6.38-2.86 6.38-6.38-2.86-6.38-6.38-6.38Z"/><path fill="#D1D5DB" d="M15.362 39.634c.22-1.892.44-4.004 2.728-6.336 1.98-1.98 4.091-2.288 6.071-2.596 1.804-.264 3.52-.528 5.016-2.024s1.76-3.212 2.024-5.016c.308-2.023.616-4.091 2.596-6.071 2.288-2.288 4.444-2.552 6.336-2.728 1.672-.176 3.256-.352 4.796-1.892 1.408-1.408 2.068-3.344 1.804-5.368-.176-1.364-.836-2.684-1.804-3.696a6.395 6.395 0 0 0-3.696-1.804 6.38 6.38 0 0 0-5.368 1.804c-1.54 1.54-1.716 3.124-1.892 4.796-.22 1.892-.44 4.004-2.728 6.336-1.98 1.98-4.752 2.948-7.524 2.684-2.112-.22-4.136-1.144-5.631-2.684-2.288-2.288-2.552-4.444-2.728-6.336-.176-1.672-.352-3.256-1.892-4.796-1.232-1.232-2.816-1.892-4.532-1.892-.264 0-.572 0-.836.044-1.364.176-2.684.836-3.696 1.804A6.394 6.394 0 0 0 2.602 7.56a6.38 6.38 0 0 0 1.804 5.368c1.54 1.54 3.124 1.716 4.796 1.892 1.892.22 4.004.44 6.336 2.728 1.54 1.54 2.508 3.52 2.683 5.631.264 2.816-.704 5.544-2.683 7.524-2.288 2.288-4.444 2.552-6.336 2.728-1.672.176-3.256.352-4.796 1.892-1.408 1.408-2.068 3.344-1.804 5.368.176 1.364.836 2.684 1.804 3.696a6.269 6.269 0 0 0 3.696 1.804 6.38 6.38 0 0 0 5.368-1.804c1.54-1.496 1.716-3.08 1.892-4.752Z"/></svg>